<svg width="72" height="60" viewBox="0 0 72 60" fill="none" xmlns="http://www.w3.org/2000/svg">
<path d="M1.64701 46.6438C-4.06462 34.6905 5.80092 12.5952 20.1171 4.1917C34.5074 -4.13933 53.3484 1.07662 62.8431 9.98721C72.3377 18.8254 72.4861 31.2857 68.7772 40.7034C65.0684 50.0486 57.4281 56.3513 42.9636 58.5246C28.5733 60.6979 7.35864 58.6695 1.64701 46.6438Z" fill="#F6C937"/>
<path d="M66.73 14.6C72.12 26.15 62.81 47.5 49.3 55.62C35.72 63.67 17.94 58.63 8.98004 50.02C0.020041 41.48 -0.119958 29.44 3.38004 20.34C6.88004 11.31 14.09 5.21999 27.74 3.11999C41.32 1.01999 61.34 2.97999 66.73 14.6Z" fill="#FF0066"/>
<path d="M33.21 24.14C33.51 23.54 33.66 22.96 33.66 22.4C33.66 21.84 33.63 21.41 33.57 21.11C33.51 20.79 33.41 20.51 33.27 20.27C32.97 19.75 32.52 19.49 31.92 19.49C31.18 19.49 30.51 19.76 29.91 20.3C29.27 20.86 28.95 21.58 28.95 22.46C28.95 23.02 29.14 23.52 29.52 23.96C29.92 24.38 30.42 24.79 31.02 25.19C31.62 25.59 32.26 25.99 32.94 26.39C33.62 26.79 34.26 27.23 34.86 27.71C36.24 28.81 36.93 30.1 36.93 31.58C36.93 32.58 36.66 33.51 36.12 34.37C35.6 35.21 34.9 35.94 34.02 36.56C32.1 37.92 29.87 38.6 27.33 38.6C25.27 38.6 23.71 38.27 22.65 37.61C21.59 36.93 21.06 36.08 21.06 35.06C21.06 33.24 21.77 32.1 23.19 31.64C23.59 31.5 24.09 31.43 24.69 31.43C25.31 31.43 25.97 31.56 26.67 31.82C26.35 32.64 26.19 33.42 26.19 34.16C26.19 35.76 26.76 36.56 27.9 36.56C28.64 36.56 29.31 36.29 29.91 35.75C30.53 35.21 30.84 34.64 30.84 34.04C30.84 33.42 30.64 32.89 30.24 32.45C29.86 32.01 29.38 31.62 28.8 31.28C28.22 30.92 27.59 30.57 26.91 30.23C26.25 29.89 25.63 29.48 25.05 29C23.69 27.9 23.01 26.47 23.01 24.71C23.01 23.57 23.29 22.56 23.85 21.68C24.41 20.78 25.14 20.03 26.04 19.43C27.84 18.21 29.84 17.6 32.04 17.6C34.26 17.6 35.9 17.93 36.96 18.59C38.04 19.25 38.58 20.14 38.58 21.26C38.58 22.24 38.2 23.04 37.44 23.66C36.78 24.18 36.05 24.44 35.25 24.44C34.45 24.44 33.77 24.34 33.21 24.14ZM39.6853 35C39.6853 34.46 39.8253 33.51 40.1053 32.15L41.6953 24.05H39.9253L40.0453 23.15C42.4453 22.43 44.8053 21.19 47.1253 19.43H48.5653L47.8453 22.7H50.1853L49.9153 24.05H47.6053L46.0753 32.15C45.8153 33.39 45.6853 34.22 45.6853 34.64C45.6853 35.6 46.1053 36.18 46.9453 36.38C46.7453 37.06 46.2853 37.6 45.5653 38C44.8453 38.4 43.9753 38.6 42.9553 38.6C41.9353 38.6 41.1353 38.28 40.5553 37.64C39.9753 37 39.6853 36.12 39.6853 35Z" fill="white"/>
</svg>
